<svg width="16" height="16" viewBox="0 0 16 16" fill="none" xmlns="http://www.w3.org/2000/svg">
<path d="M8 8.5C7.40666 8.5 6.82664 8.32405 6.33329 7.99441C5.83994 7.66477 5.45543 7.19623 5.22836 6.64805C5.0013 6.09987 4.94189 5.49667 5.05765 4.91473C5.1734 4.33279 5.45912 3.79824 5.87868 3.37868C6.29824 2.95912 6.83279 2.6734 7.41473 2.55765C7.99667 2.44189 8.59987 2.5013 9.14805 2.72836C9.69623 2.95543 10.1648 3.33994 10.4944 3.83329C10.8241 4.32664 11 4.90666 11 5.5C11 6.29565 10.6839 7.05871 10.1213 7.62132C9.55871 8.18393 8.79565 8.5 8 8.5ZM8 3.5C7.60444 3.5 7.21776 3.6173 6.88886 3.83706C6.55996 4.05682 6.30362 4.36918 6.15224 4.73463C6.00087 5.10009 5.96126 5.50222 6.03843 5.89018C6.1156 6.27814 6.30608 6.63451 6.58579 6.91421C6.86549 7.19392 7.22186 7.3844 7.60982 7.46157C7.99778 7.53874 8.39992 7.49914 8.76537 7.34776C9.13082 7.19638 9.44318 6.94004 9.66294 6.61114C9.8827 6.28224 10 5.89556 10 5.5C10 4.96957 9.78929 4.46086 9.41421 4.08579C9.03914 3.71071 8.53043 3.5 8 3.5Z" fill="#349A37"/>
<path d="M7.99983 15.5C6.89105 15.4992 5.79623 15.2527 4.79418 14.778C3.79213 14.3034 2.90779 13.6124 2.20482 12.755L1.94482 12.435L2.20482 12.12C2.90838 11.2636 3.79299 10.5739 4.795 10.1003C5.79702 9.6267 6.89154 9.38107 7.99983 9.38107C9.10813 9.38107 10.2026 9.6267 11.2047 10.1003C12.2067 10.5739 13.0913 11.2636 13.7948 12.12L14.0548 12.435L13.7948 12.755C13.0919 13.6124 12.2075 14.3034 11.2055 14.778C10.2034 15.2527 9.10861 15.4992 7.99983 15.5ZM3.25483 12.44C3.86294 13.091 4.59839 13.61 5.41551 13.9649C6.23263 14.3198 7.11398 14.5029 8.00483 14.5029C8.89569 14.5029 9.77703 14.3198 10.5941 13.9649C11.4113 13.61 12.1467 13.091 12.7548 12.44C12.1467 11.789 11.4113 11.2699 10.5941 10.915C9.77703 10.5602 8.89569 10.377 8.00483 10.377C7.11398 10.377 6.23263 10.5602 5.41551 10.915C4.59839 11.2699 3.86294 11.789 3.25483 12.44Z" fill="#349A37"/>
<path d="M7.99987 15.5C6.29625 15.5011 4.64299 14.9222 3.31222 13.8586C1.98145 12.7949 1.05246 11.3098 0.678147 9.64785C0.303838 7.98585 0.506516 6.24593 1.25282 4.71448C1.99913 3.18302 3.2446 1.95127 4.78423 1.22197C6.32386 0.492673 8.06591 0.309279 9.72366 0.701974C11.3814 1.09467 12.8561 2.04005 13.9049 3.38253C14.9538 4.725 15.5144 6.38456 15.4943 8.08807C15.4743 9.79158 14.875 11.4375 13.7949 12.755C13.0919 13.6124 12.2076 14.3034 11.2055 14.778C10.2035 15.2527 9.10865 15.4992 7.99987 15.5ZM7.99987 1.5C6.71429 1.5 5.45759 1.88122 4.38867 2.59545C3.31975 3.30968 2.48663 4.32484 1.99466 5.51256C1.50269 6.70028 1.37397 8.00721 1.62477 9.26808C1.87558 10.529 2.49464 11.6871 3.40368 12.5962C4.31272 13.5052 5.47091 14.1243 6.73179 14.3751C7.99266 14.6259 9.29959 14.4972 10.4873 14.0052C11.675 13.5132 12.6902 12.6801 13.4044 11.6112C14.1186 10.5423 14.4999 9.28557 14.4999 8C14.4999 6.27609 13.815 4.62279 12.5961 3.40381C11.3771 2.18482 9.72378 1.5 7.99987 1.5Z" fill="#349A37"/>
<path d="M2.58984 12.44C2.58984 12.44 7.62484 18.065 12.7498 13L13.4098 12.44C13.4098 12.44 9.12984 8 4.78484 10.665L2.58984 12.44Z" fill="#349A37"/>
<path d="M8 8C9.38071 8 10.5 6.88071 10.5 5.5C10.5 4.11929 9.38071 3 8 3C6.61929 3 5.5 4.11929 5.5 5.5C5.5 6.88071 6.61929 8 8 8Z" fill="#349A37"/>
</svg>
