<svg width="16" height="16" viewBox="0 0 16 16" fill="none" xmlns="http://www.w3.org/2000/svg">
<path d="M4.04053 7.68732H11.564V8.72919H4.04053V7.68732Z" fill="#CFE9FF"/>
<path d="M11.6705 7.68736V6.68331C11.6705 4.54798 9.93751 2.81496 7.80219 2.81496C5.66686 2.81496 3.93384 4.54798 3.93384 6.68331V7.68736H11.6705Z" fill="#ED8D06"/>
<path d="M6.04852 3.23442V3.24474C5.96944 3.48887 5.76656 3.66768 5.57744 3.8396C5.38832 4.01153 5.19577 4.20409 5.14075 4.45854C5.08917 4.70267 5.17513 4.98807 5.02384 5.19095C4.91037 5.34568 4.70062 5.38694 4.50806 5.40757C4.38427 5.42133 4.26049 5.43508 4.14014 5.44196C4.33269 4.8746 4.65248 4.36226 5.06854 3.9462C5.3505 3.6608 5.68404 3.41666 6.04852 3.23442Z" fill="#FFAD09"/>
<path d="M11.6709 6.67983V7.68388H4.61157C4.70441 7.27126 5.14111 6.93085 5.58124 6.84488C6.13828 6.73485 6.71252 6.88271 7.27987 6.89646C7.84723 6.91021 8.49711 6.72453 8.73093 6.20532C8.88911 5.84427 8.82721 5.37663 9.10917 5.10499C9.28454 4.93994 9.53555 4.90211 9.76593 4.84022C9.99631 4.77832 10.2439 4.65798 10.3092 4.42759C10.3746 4.19377 10.2233 3.95995 10.1167 3.74333C10.0788 3.66768 10.0479 3.58859 10.0204 3.50951C11.021 4.21441 11.6709 5.36975 11.6709 6.67983Z" fill="#FFAD09"/>
<path d="M-0.663818 11.0606V14.5507H2.46868V8.72923L-0.344035 10.4829C-0.54347 10.6067 -0.663818 10.8233 -0.663818 11.0606Z" fill="#CFE9FF"/>
<path d="M2.46917 8.72923V14.5541H-0.178503C-0.192258 14.3306 -0.085663 14.0968 0.113772 13.9902C0.381977 13.8492 0.715515 13.9386 1.01123 13.8698C1.43417 13.7701 1.73332 13.3025 1.64048 12.8761C1.57515 12.5598 1.32414 12.2675 1.40322 11.9546C1.47543 11.6623 1.79521 11.5076 1.95339 11.2531C2.13907 10.9608 2.09093 10.5757 1.97402 10.2491C1.85711 9.9224 1.68174 9.61637 1.62673 9.27252C1.62673 9.26564 1.62673 9.25877 1.62329 9.25189L2.46917 8.72923Z" fill="#99CCFF"/>
<path d="M2.46868 8.72923V11.9546H-0.663818V11.0606C-0.663818 10.8233 -0.54347 10.6067 -0.340596 10.4794L1.62624 9.25189L2.46868 8.72923Z" fill="#626B72"/>
<path d="M2.46878 8.72923V11.9546H1.40283C1.47504 11.6623 1.79482 11.5076 1.953 11.2531C2.13868 10.9608 2.09054 10.5757 1.97363 10.2491C1.85672 9.9224 1.68135 9.61637 1.62634 9.27252C1.62634 9.26564 1.62634 9.25877 1.6229 9.25189L2.46878 8.72923Z" fill="#3E484F"/>
<path d="M16.268 11.0606V14.5507H13.1355V8.72923L15.9482 10.4829C16.1476 10.6067 16.268 10.8233 16.268 11.0606Z" fill="#CFE9FF"/>
<path d="M16.2683 11.0605V14.5506H13.655C13.6653 14.2274 13.8682 13.9076 14.1777 13.801C14.5697 13.6635 15.0579 13.832 15.3812 13.5741C15.5806 13.4159 15.6459 13.1374 15.6253 12.8864C15.6047 12.6354 15.5118 12.3947 15.4431 12.1505C15.2608 11.5007 15.2539 10.8026 15.4224 10.1493L15.9485 10.4794C16.148 10.6066 16.2683 10.8233 16.2683 11.0605Z" fill="#99CCFF"/>
<path d="M16.268 11.0606V11.9546H13.1355V8.72923L15.4187 10.1528L15.9448 10.4829C16.1476 10.6067 16.268 10.8233 16.268 11.0606Z" fill="#626B72"/>
<path d="M16.2679 11.0605V11.9546H15.3911C15.257 11.3631 15.2673 10.7408 15.4186 10.1528L15.9447 10.4829C16.1476 10.6067 16.2679 10.8233 16.2679 11.0605Z" fill="#3E484F"/>
<path d="M2.46875 8.72923H13.1385V14.5507H2.46875V8.72923Z" fill="#CFE9FF"/>
<path d="M13.1353 8.72923V14.5507H3.53833C3.57615 14.3065 3.70682 14.0693 3.89938 13.9077C4.23635 13.6223 4.70743 13.5466 5.14756 13.5844C5.58426 13.6223 6.0072 13.7598 6.43701 13.8664C6.86339 13.973 7.31384 14.0452 7.74366 13.9455C8.15628 13.8492 8.52076 13.6051 8.92651 13.4813C9.51106 13.3025 10.1609 13.385 10.7214 13.1409C11.1616 12.9483 11.5054 12.5632 11.6705 12.1162C11.8355 11.6657 11.8286 11.1603 11.6739 10.7064C11.557 10.3625 11.3576 10.0462 11.2957 9.69202C11.2372 9.36536 11.3025 9.03182 11.4401 8.72923H13.1353Z" fill="#99CCFF"/>
<path d="M2.46875 8.72923H13.1385V11.9546H2.46875V8.72923Z" fill="#4D5760"/>
<path d="M5.00641 8.72922C4.97202 8.79456 4.92732 8.85645 4.8723 8.90115C4.69694 9.04901 4.4528 9.09371 4.22242 9.10058C3.99204 9.10746 3.75822 9.07995 3.53128 9.10746C3.3009 9.13841 3.06708 9.23813 2.94673 9.43412C2.86076 9.5751 2.84357 9.74703 2.80575 9.90864C2.76448 10.0703 2.68884 10.2387 2.53754 10.3075C2.51347 10.3178 2.4894 10.3247 2.46533 10.3316V8.72578H5.00641V8.72922Z" fill="#626B72"/>
<path d="M13.135 8.72923V11.9546H4.35645C4.36332 11.817 4.40458 11.6761 4.48367 11.5626C4.67279 11.2909 4.99945 11.1431 5.3158 11.0468C6.17543 10.7786 7.11415 10.7545 7.9841 10.9815C8.57896 11.1362 9.1532 11.4044 9.76526 11.4594C10.3773 11.5179 11.0822 11.2875 11.3298 10.7236C11.5636 10.1975 11.3298 9.57855 11.4501 9.01807C11.4708 8.91835 11.5017 8.82207 11.5464 8.72923H13.135Z" fill="#3E484F"/>
<path d="M8.78917 10.9711V14.5506H6.81201V10.9711C6.81201 10.4244 7.25558 9.98424 7.79887 9.98424C8.34904 9.9808 8.78917 10.4244 8.78917 10.9711Z" fill="#E6F5FF"/>
<path d="M4.24009 11.2187V11.9545H3.32544V11.2187C3.32544 10.9642 3.53175 10.7613 3.78276 10.7613C4.03378 10.7613 4.24009 10.9642 4.24009 11.2187Z" fill="#E6F5FF"/>
<path d="M5.90051 11.2187V11.9545H4.98242V11.2187C4.98242 10.9642 5.18873 10.7613 5.43975 10.7613C5.6942 10.7613 5.90051 10.9642 5.90051 11.2187Z" fill="#E6F5FF"/>
<path d="M10.6222 11.2187V11.9545H9.70752V11.2187C9.70752 10.9642 9.91383 10.7613 10.1648 10.7613C10.4159 10.7613 10.6222 10.9642 10.6222 11.2187Z" fill="#E6F5FF"/>
<path d="M12.2828 11.2187V11.9545H11.3682V11.2187C11.3682 10.9642 11.5745 10.7613 11.8255 10.7613C12.0765 10.7613 12.2828 10.9642 12.2828 11.2187Z" fill="#E6F5FF"/>
<path d="M14.3115 11.3597V11.9545H13.5723V11.3597C13.5723 11.1568 13.7373 10.9917 13.9402 10.9917C14.1465 10.9917 14.3115 11.1568 14.3115 11.3597Z" fill="#E6F5FF"/>
<path d="M15.14 11.2875V11.9545H14.7515V11.2909C14.7515 11.1843 14.8374 11.0983 14.944 11.0983C15.0541 11.0949 15.14 11.1809 15.14 11.2875Z" fill="#E6F5FF"/>
<path d="M15.8927 11.4731V11.9545H15.5042V11.4731C15.5042 11.3665 15.5901 11.2806 15.6967 11.2806C15.8067 11.2771 15.8927 11.3665 15.8927 11.4731Z" fill="#E6F5FF"/>
<path d="M1.29321 11.3597V11.9545H2.0325V11.3597C2.0325 11.1568 1.86745 10.9917 1.66457 10.9917C1.45826 10.9917 1.29321 11.1568 1.29321 11.3597Z" fill="#E6F5FF"/>
<path d="M0.464355 11.2875V11.9545H0.85291V11.2909C0.85291 11.1843 0.766946 11.0983 0.660352 11.0983C0.550319 11.0949 0.464355 11.1809 0.464355 11.2875Z" fill="#E6F5FF"/>
<path d="M-0.288574 11.4731V11.9545H0.0999799V11.4731C0.0999799 11.3665 0.0140165 11.2806 -0.0925779 11.2806C-0.202611 11.2771 -0.288574 11.3665 -0.288574 11.4731Z" fill="#E6F5FF"/>
<path d="M3.93468 7.43288C3.97251 7.43288 4.00345 7.40193 4.00345 7.36411V6.67984C4.00345 4.88837 5.23101 3.43387 6.81273 3.01093C5.62644 3.678 5.07627 5.29411 5.07627 6.67984V7.36411C5.07627 7.40193 5.10722 7.43288 5.14504 7.43288C5.18287 7.43288 5.21382 7.40193 5.21382 7.36411V6.67984C5.21382 5.12563 5.97373 3.18973 7.47293 2.91121C6.85399 3.57829 6.71302 5.72737 6.71302 6.67984V7.36411C6.71302 7.40193 6.74396 7.43288 6.78179 7.43288C6.81961 7.43288 6.85056 7.40193 6.85056 7.36411V6.67984C6.85056 5.65172 6.95715 4.68893 7.14971 3.9634C7.33195 3.2757 7.57265 2.88026 7.80647 2.88026C8.26723 2.88026 8.76238 4.40697 8.76238 6.67984V7.36411C8.76238 7.40193 8.79333 7.43288 8.83115 7.43288C8.86897 7.43288 8.89992 7.40193 8.89992 7.36411V6.67984C8.89992 5.07749 8.61796 3.43043 8.13657 2.91121C9.41226 3.14847 10.3991 4.74739 10.3991 6.67984V7.36411C10.3991 7.40193 10.4301 7.43288 10.4679 7.43288C10.5057 7.43288 10.5367 7.40193 10.5367 7.36411V6.67984C10.5367 5.00872 9.81113 3.58173 8.79333 3.01093C10.4129 3.44418 11.6095 4.92619 11.6095 6.67984V7.36411C11.6095 7.40193 11.6404 7.43288 11.6783 7.43288C11.7161 7.43288 11.747 7.40193 11.747 7.36411V6.67984C11.747 4.53076 10.0174 2.78055 7.87868 2.74616V2.06877C7.87868 2.03095 7.84773 2 7.80991 2C7.77208 2 7.74114 2.03095 7.74114 2.06877V2.74616C5.59549 2.78399 3.87279 4.52732 3.87279 6.67984V7.36411C3.86591 7.40193 3.89686 7.43288 3.93468 7.43288Z" fill="#263238" fill-opacity="0.4"/>
<path d="M3.56657 7.75264H3.97232V8.4541C3.97232 8.49192 4.00326 8.52287 4.04109 8.52287C4.07891 8.52287 4.10986 8.49192 4.10986 8.4541V7.75264H11.4993V8.4541C11.4993 8.49192 11.5302 8.52287 11.568 8.52287C11.6059 8.52287 11.6368 8.49192 11.6368 8.4541V7.75264H12.0426C12.0804 7.75264 12.1113 7.72169 12.1113 7.68387C12.1113 7.64604 12.0804 7.6151 12.0426 7.6151C8.44929 7.6151 7.07387 7.6151 3.57001 7.6151C3.53218 7.6151 3.50124 7.64604 3.50124 7.68387C3.4978 7.72513 3.52875 7.75264 3.56657 7.75264Z" fill="#263238" fill-opacity="0.4"/>
<path d="M16.5365 14.4818H16.3371C16.3371 13.6635 16.3371 11.8754 16.3371 11.0605C16.3371 10.7992 16.2064 10.5619 15.9829 10.4209L13.4453 8.83921C13.4143 8.81858 13.3696 8.8289 13.3524 8.85985C13.3318 8.89079 13.3421 8.93549 13.3731 8.95269L15.9107 10.5344C16.0929 10.6479 16.1995 10.8439 16.1995 11.0571V11.8823H15.9588V11.4697C15.9588 11.3253 15.8419 11.2084 15.6975 11.2084C15.5531 11.2084 15.4362 11.3253 15.4362 11.4697V11.8823H15.2092V11.284C15.2092 11.1396 15.0923 11.0227 14.9479 11.0227C14.8035 11.0227 14.6866 11.1396 14.6866 11.284V11.8858H14.3806V11.3597C14.3806 11.119 14.1846 10.923 13.9439 10.923C13.7032 10.923 13.5072 11.119 13.5072 11.3597V11.8858H13.4075C13.3696 11.8858 13.3387 11.9167 13.3387 11.9545C13.3387 11.9923 13.3696 12.0233 13.4075 12.0233H16.1995V14.4853H13.2046C13.2046 13.9489 13.2046 16.5278 13.2046 8.73262C13.2046 8.71199 13.1977 8.6948 13.1839 8.68448C13.1702 8.67073 13.153 8.66385 13.1358 8.66385H2.46948C2.44885 8.66385 2.43166 8.67073 2.42134 8.68448C2.40759 8.69823 2.40071 8.71543 2.40071 8.73262V14.4853H-0.597692V12.0233H2.19783C2.23566 12.0233 2.26661 11.9923 2.26661 11.9545C2.26661 11.9167 2.23566 11.8858 2.19783 11.8858H2.10156V11.3597C2.10156 11.119 1.90556 10.923 1.66486 10.923C1.42417 10.923 1.22817 11.119 1.22817 11.3597V11.8858H0.92214V11.2875C0.92214 11.143 0.805229 11.0261 0.660811 11.0261C0.516393 11.0261 0.399483 11.143 0.399483 11.2875V11.8858H0.169101V11.4731C0.169101 11.3287 0.0521909 11.2118 -0.0922275 11.2118C-0.236646 11.2118 -0.353556 11.3287 -0.353556 11.4731V11.8858H-0.594253V11.0605C-0.594253 10.8473 -0.48422 10.6513 -0.305416 10.5378L2.23222 8.95612C2.26317 8.93549 2.27348 8.89423 2.25285 8.86328C2.23222 8.83234 2.19096 8.82202 2.16001 8.84265L-0.377626 10.4244C-0.597692 10.5619 -0.731794 10.8026 -0.731794 11.0639V14.4853H-0.931229C-0.969053 14.4853 -1 14.5162 -1 14.5541C-1 14.5919 -0.969053 14.6228 -0.931229 14.6228H16.2717H16.2752H16.54C16.5778 14.6228 16.6087 14.5919 16.6087 14.5541C16.6053 14.5128 16.5743 14.4818 16.5365 14.4818ZM15.5737 11.4731C15.5737 11.4044 15.6287 11.3459 15.701 11.3459C15.7732 11.3459 15.8282 11.4009 15.8282 11.4731V11.8858H15.5737V11.4731ZM14.8207 11.2875C14.8207 11.2187 14.8757 11.1602 14.9479 11.1602C15.0201 11.1602 15.0751 11.2152 15.0751 11.2875V11.8858H14.8241V11.2875H14.8207ZM13.6413 11.3597C13.6413 11.1946 13.7754 11.0571 13.9439 11.0571C14.1123 11.0571 14.2465 11.1912 14.2465 11.3597V11.8858H13.6447V11.3597H13.6413ZM1.36227 11.3597C1.36227 11.1946 1.49637 11.0571 1.66486 11.0571C1.82991 11.0571 1.96745 11.1912 1.96745 11.3597V11.8858H1.36227V11.3597ZM0.533585 11.2875C0.533585 11.2187 0.588602 11.1602 0.660811 11.1602C0.729582 11.1602 0.788037 11.2152 0.788037 11.2875V11.8858H0.537024V11.2875H0.533585ZM-0.219453 11.4731C-0.219453 11.4044 -0.164437 11.3459 -0.0922275 11.3459C-0.0200183 11.3459 0.0315597 11.4044 0.0315597 11.4731V11.8858H-0.219453V11.4731ZM4.17155 11.8858H3.39101V11.2187C3.39101 11.0021 3.56637 10.8301 3.77956 10.8301C3.99275 10.8301 4.16811 11.0055 4.16811 11.2187V11.8858H4.17155ZM4.91428 12.0233V14.4853H4.30566V12.0233H4.91428ZM5.83236 11.8858H5.05182V11.2187C5.05182 11.0021 5.22718 10.8301 5.44037 10.8301C5.65356 10.8301 5.82893 11.0055 5.82893 11.2187V11.8858H5.83236ZM6.74701 12.0233V14.4853H5.9699V12.0233H6.74701ZM8.72417 14.4818H6.88455V10.9711C6.88455 10.4622 7.29718 10.0496 7.80608 10.0496C8.31498 10.0496 8.72761 10.4622 8.72761 10.9711V14.4818H8.72417ZM8.85827 12.0233H9.63538V14.4853H8.85827V12.0233ZM10.5535 11.8858H9.77292V11.2187C9.77292 11.0021 9.94829 10.8301 10.1615 10.8301C10.3747 10.8301 10.55 11.0055 10.55 11.2187V11.8858H10.5535ZM11.2996 12.0233V14.4853H10.691V12.0233H11.2996ZM12.2143 11.8858H11.4337V11.2187C11.4337 11.0021 11.6091 10.8301 11.8223 10.8301C12.0355 10.8301 12.2108 11.0055 12.2108 11.2187V11.8858H12.2143ZM11.8257 10.6926C11.5369 10.6926 11.2996 10.9298 11.2996 11.2187V11.8858H10.691V11.2187C10.691 10.9298 10.4538 10.6926 10.1649 10.6926C9.87608 10.6926 9.63882 10.9298 9.63882 11.2187V11.8858H8.86171V10.9711C8.86171 10.39 8.38719 9.91548 7.80608 9.91548C7.22497 9.91548 6.75045 10.39 6.75045 10.9711V11.8858H5.97334V11.2187C5.97334 10.9298 5.73608 10.6926 5.44725 10.6926C5.15841 10.6926 4.92115 10.9298 4.92115 11.2187V11.8858H4.31253V11.2187C4.31253 10.9298 4.07527 10.6926 3.78644 10.6926C3.4976 10.6926 3.26034 10.9298 3.26034 11.2187V11.8858H2.54169V8.79795H13.0739V11.8858H12.3553V11.2187C12.3518 10.9264 12.1146 10.6926 11.8257 10.6926ZM2.53825 12.0233H3.2569V14.4853H2.53825V12.0233ZM3.39101 14.4818V12.0233H4.17155V14.4853H3.39101V14.4818ZM5.05182 14.4818V12.0233H5.83236V14.4853H5.05182V14.4818ZM9.77292 14.4818V12.0233H10.5535V14.4853H9.77292V14.4818ZM11.4337 14.4818V12.0233H12.2143V14.4853H11.4337V14.4818ZM12.3518 14.4818V12.0233H13.0705V14.4853H12.3518V14.4818Z" fill="#263238" fill-opacity="0.4"/>
</svg>
