<svg width="14" height="14" viewBox="0 0 14 14" fill="none" xmlns="http://www.w3.org/2000/svg">
<path d="M7.00017 0.583344C5.73107 0.583344 4.49047 0.959675 3.43526 1.66475C2.38004 2.36982 1.5576 3.37197 1.07194 4.54446C0.586276 5.71695 0.459205 7.00713 0.706793 8.25184C0.954382 9.49656 1.56551 10.6399 2.4629 11.5373C3.36028 12.4347 4.50362 13.0458 5.74834 13.2934C6.99305 13.541 8.28323 13.4139 9.45572 12.9282C10.6282 12.4426 11.6304 11.6201 12.3354 10.5649C13.0405 9.50971 13.4168 8.26911 13.4168 7.00001C13.4148 5.29882 12.7381 3.66788 11.5352 2.46496C10.3323 1.26204 8.70135 0.58535 7.00017 0.583344ZM9.16258 9.16243C9.05319 9.27179 8.90484 9.33322 8.75016 9.33322C8.59549 9.33322 8.44714 9.27179 8.33775 9.16243L6.58775 7.41243C6.47834 7.30306 6.41686 7.15471 6.41683 7.00001V3.50001C6.41683 3.3453 6.47829 3.19693 6.58769 3.08753C6.69708 2.97814 6.84546 2.91668 7.00017 2.91668C7.15487 2.91668 7.30325 2.97814 7.41264 3.08753C7.52204 3.19693 7.5835 3.3453 7.5835 3.50001V6.75851L9.16258 8.3376C9.27194 8.44699 9.33337 8.59534 9.33337 8.75002C9.33337 8.90469 9.27194 9.05304 9.16258 9.16243Z" fill="#349A37"/>
</svg>
