<svg width="14" height="14" viewBox="0 0 14 14" fill="none" xmlns="http://www.w3.org/2000/svg">
<path d="M11.9219 11.9219C11.9219 11.2434 11.3699 10.6914 10.6914 10.6914C10.1574 10.6914 9.70638 11.0353 9.53649 11.5117H4.46351C4.29362 11.0353 3.84262 10.6914 3.30859 10.6914C2.63009 10.6914 2.07812 11.2434 2.07812 11.9219C2.07812 12.5907 2.61365 13.1523 3.30859 13.1523C3.85738 13.1523 4.29754 12.8019 4.46406 12.332H9.53583C9.70296 12.8044 10.1459 13.1523 10.6914 13.1523C11.3917 13.1523 11.9219 12.5846 11.9219 11.9219Z" fill="#B7B7B7"/>
<path d="M2.96291 9.68163C3.03822 9.79981 3.16881 9.87109 3.30859 9.87109C3.44837 9.87109 3.57897 9.79981 3.65427 9.68163L6.07515 5.89408C6.412 5.36739 6.58984 4.75696 6.58984 4.12891C6.58984 2.31965 5.11785 0.847656 3.30859 0.847656C1.49934 0.847656 0 2.31965 0 4.12891C0 4.75696 0.177844 5.36739 0.514691 5.8937L2.96291 9.68163ZM3.30859 2.48828C4.21343 2.48828 4.94922 3.22407 4.94922 4.12891C4.94922 5.03374 4.21343 5.76953 3.30859 5.76953C2.40376 5.76953 1.66797 5.03374 1.66797 4.12891C1.66797 3.22407 2.40376 2.48828 3.30859 2.48828Z" fill="#B7B7B7"/>
<path d="M10.6914 0.847656C8.88215 0.847656 7.41016 2.31965 7.41016 4.12891C7.41016 4.75696 7.588 5.36739 7.92485 5.8937L10.3457 9.68163C10.421 9.79981 10.5516 9.87109 10.6914 9.87109C10.8312 9.87109 10.9618 9.79981 11.0371 9.68163L13.4853 5.89408C13.8222 5.36739 14 4.75696 14 4.12891C14 2.31965 12.5007 0.847656 10.6914 0.847656ZM10.6914 5.76953C9.78657 5.76953 9.05078 5.03374 9.05078 4.12891C9.05078 3.22407 9.78657 2.48828 10.6914 2.48828C11.5962 2.48828 12.332 3.22407 12.332 4.12891C12.332 5.03374 11.5962 5.76953 10.6914 5.76953Z" fill="#B7B7B7"/>
</svg>
