<svg width="16" height="17" viewBox="0 0 16 17" fill="none" xmlns="http://www.w3.org/2000/svg">
<g clip-path="url(#clip0_39_396)">
<path d="M14.3322 9.11117C14.3317 10.3882 13.7806 11.603 12.82 12.4445H11.8806C13.383 11.549 14.1018 9.75998 13.6366 8.07393C13.1714 6.38788 11.6369 5.22058 9.8878 5.22228C9.83614 5.22228 9.78447 5.22672 9.7328 5.22867L9.22114 4.71811C9.44178 4.68448 9.66462 4.6673 9.8878 4.66672C12.3412 4.66963 14.3293 6.65777 14.3322 9.11117ZM7.92475 7.5395C8.08907 7.70159 8.28751 7.82496 8.50558 7.90061C8.50308 7.93366 8.49892 7.96672 8.49892 7.9995C8.49975 8.65925 8.9638 9.22771 9.61003 9.36061V11.0042C9.27836 10.887 9.05605 10.5741 9.05447 10.2223C9.05447 10.0689 8.93011 9.9445 8.77669 9.9445C8.62328 9.9445 8.49892 10.0689 8.49892 10.2223C8.49975 10.882 8.9638 11.4505 9.61003 11.5834V11.6112C9.61003 11.7646 9.73439 11.8889 9.8878 11.8889C10.0412 11.8889 10.1656 11.7646 10.1656 11.6112V11.5834C10.8129 11.4519 11.2781 10.8828 11.2781 10.2223C11.2781 9.56175 10.8129 8.99261 10.1656 8.86117V7.39505C10.1977 7.3505 10.2272 7.30413 10.2539 7.25617C10.5383 7.39525 10.7193 7.68347 10.7211 8.00005C10.7211 8.15347 10.8455 8.27783 10.9989 8.27783C11.1523 8.27783 11.2767 8.15347 11.2767 8.00005C11.2745 7.44172 10.9389 6.93872 10.4242 6.72228C10.4649 6.40187 10.3997 6.07695 10.2386 5.797C12.0241 5.98597 13.3391 7.55516 13.2129 9.34616C13.0867 11.1372 11.5646 12.5064 9.77023 12.4431C7.97591 12.3797 6.55412 10.9066 6.55447 9.11117C6.55312 8.32276 6.8336 7.55984 7.3453 6.96005L7.92475 7.5395ZM10.1656 9.44005C10.4984 9.556 10.7214 9.86984 10.7214 10.2223C10.7214 10.5747 10.4984 10.8886 10.1656 11.0045V9.44005ZM9.61003 8.78228C9.27826 8.66498 9.05593 8.35194 9.05447 8.00005V7.99144C9.23956 7.98607 9.42172 7.94386 9.5903 7.86728C9.59669 7.8645 9.60253 7.86061 9.60892 7.85755L9.61003 8.78228ZM5.06475 4.39478C4.72417 4.53795 4.35715 4.60743 3.9878 4.59867C2.49058 4.59867 1.88864 3.697 1.82114 3.47394C1.79196 3.37907 1.71439 3.30697 1.61763 3.2848C1.52088 3.26263 1.41965 3.29376 1.35208 3.36647C1.2845 3.43917 1.26085 3.5424 1.29003 3.63728C1.3526 3.80953 1.44421 3.96981 1.56086 4.11117H0.721137C0.567725 4.11117 0.443359 3.9868 0.443359 3.83339V1.05561C0.443359 0.902197 0.567725 0.777832 0.721137 0.777832H6.91003C7.31002 0.778513 7.69037 0.951377 7.95392 1.25228L10.4909 4.15117C9.90912 4.07564 9.31847 4.10718 8.74808 4.24422L6.47308 1.97033C6.36409 1.86506 6.19084 1.86657 6.08369 1.97372C5.97654 2.08086 5.97503 2.25412 6.0803 2.36311L9.44336 5.72422L9.62475 5.90533C9.83258 6.11796 9.92307 6.4189 9.86697 6.71089C9.81805 6.99942 9.62766 7.24417 9.36003 7.36255C9.00151 7.51407 8.58666 7.42816 8.3178 7.14672L5.68086 4.50978C5.51878 4.3482 5.2742 4.30255 5.06475 4.39478ZM5.44336 9.11117C5.44184 8.02826 5.83905 6.98269 6.55919 6.17394L6.95253 6.56728C6.19718 7.43399 5.86571 8.59138 6.04776 9.72655C6.2298 10.8617 6.90654 11.8574 7.89503 12.4445H6.95558C5.99506 11.603 5.44396 10.3882 5.44336 9.11117ZM4.05447 16.0556V14.6667H15.7211V16.0556C15.7211 16.209 15.5968 16.3334 15.4434 16.3334H4.33225C4.17884 16.3334 4.05447 16.209 4.05447 16.0556Z" fill="#349A37"/>
<path d="M15.7211 13.0001H4.05439C3.90098 13.0001 3.77661 13.1244 3.77661 13.2778V13.8334C3.77661 13.9868 3.90098 14.1112 4.05439 14.1112H15.7211C15.8745 14.1112 15.9988 13.9868 15.9988 13.8334V13.2778C15.9988 13.1244 15.8745 13.0001 15.7211 13.0001Z" fill="#349A37"/>
</g>
<defs>
<clipPath id="clip0_39_396">
<rect width="15.5556" height="15.5556" fill="white" transform="translate(0.443359 0.777832)"/>
</clipPath>
</defs>
</svg>
