<svg width="57" height="57" viewBox="0 0 57 57" fill="none" xmlns="http://www.w3.org/2000/svg">
<g clip-path="url(#clip0_296_566)">
<path d="M28.5 57C44.2401 57 57 44.2401 57 28.5C57 12.7599 44.2401 0 28.5 0C12.7599 0 0 12.7599 0 28.5C0 44.2401 12.7599 57 28.5 57Z" fill="#349A37"/>
<path d="M21.2178 41.3565L35.8724 56.0111C48.0096 52.7745 57.0001 41.7161 57.0001 28.5C57.0001 28.2303 57.0001 27.9606 57.0001 27.6909L45.4922 17.082L21.2178 41.3565Z" fill="#1F7E22"/>
<path d="M29.2193 34.8835C30.4779 36.1422 30.4779 38.2999 29.2193 39.5586L26.612 42.1659C25.3533 43.4245 23.1956 43.4245 21.9369 42.1659L10.519 30.658C9.26028 29.3993 9.26028 27.2416 10.519 25.9829L13.1262 23.3756C14.3849 22.117 16.5426 22.117 17.8013 23.3756L29.2193 34.8835Z" fill="white"/>
<path d="M39.1988 15.0143C40.4574 13.7556 42.6152 13.7556 43.8739 15.0143L46.4811 17.6216C47.7398 18.8803 47.7398 21.038 46.4811 22.2967L26.7019 41.9859C25.4433 43.2446 23.2855 43.2446 22.0268 41.9859L19.4196 39.3787C18.1609 38.12 18.1609 35.9623 19.4196 34.7036L39.1988 15.0143Z" fill="white"/>
</g>
<defs>
<clipPath id="clip0_296_566">
<rect width="57" height="57" fill="white"/>
</clipPath>
</defs>
</svg>
