<svg width="109" height="109" viewBox="0 0 109 109" fill="none" xmlns="http://www.w3.org/2000/svg">
<path d="M33.2067 83.9445L22.4302 100.599C19.454 105.197 12.9949 105.883 9.12025 102.008C5.24564 98.1337 5.93115 91.6746 10.5296 88.6984L27.184 77.9219L33.2067 83.9445Z" fill="#349A37"/>
<path d="M42.2377 74.9118C44.7327 77.4069 44.7327 81.4497 42.2377 83.9447C39.7477 86.4347 35.7015 86.4394 33.2068 83.9447L27.1842 77.9221C24.6912 75.4291 24.6912 71.3842 27.1842 68.8912C29.679 66.3964 33.722 66.3962 36.2171 68.8912L42.2377 74.9118Z" fill="#1F7E22"/>
<path d="M64.819 82.502C84.8073 82.502 101.011 66.2983 101.011 46.31C101.011 26.3217 84.8073 10.1179 64.819 10.1179C44.8307 10.1179 28.627 26.3217 28.627 46.31C28.627 66.2983 44.8307 82.502 64.819 82.502Z" fill="#101426"/>
<path d="M83.8662 27.2625C94.3851 37.7814 94.3851 54.8382 83.8662 65.3571C73.3472 75.8761 56.2904 75.8761 45.7715 65.3571C35.2526 54.8382 35.2526 37.7814 45.7715 27.2625C56.2904 16.7436 73.3472 16.7436 83.8662 27.2625Z" fill="#ECECF1"/>
<path d="M100.271 17.2439C101.447 17.2439 102.4 18.1976 102.4 19.3728C102.4 20.548 101.447 21.5017 100.271 21.5017C99.0963 21.5017 98.1426 20.548 98.1426 19.3728C98.1426 18.1976 99.0963 17.2439 100.271 17.2439Z" fill="#ECECF1"/>
<path d="M100.271 93.8845C101.447 93.8845 102.4 94.8383 102.4 96.0134C102.4 97.1886 101.447 98.1423 100.271 98.1423C99.0963 98.1423 98.1426 97.1886 98.1426 96.0134C98.1426 94.8383 99.0963 93.8845 100.271 93.8845Z" fill="#ECECF1"/>
<path d="M88.5625 4.47046C90.3252 4.47046 91.7559 5.90108 91.7559 7.66382C91.7559 9.42655 90.3252 10.8572 88.5625 10.8572C86.7998 10.8572 85.3691 9.42655 85.3691 7.66382C85.3691 5.90108 86.7998 4.47046 88.5625 4.47046Z" fill="#349A37"/>
<path d="M63.0156 93.8845C64.7784 93.8845 66.209 95.3151 66.209 97.0779C66.209 98.8406 64.7784 100.271 63.0156 100.271C61.2529 100.271 59.8223 98.8406 59.8223 97.0779C59.8223 95.3151 61.2529 93.8845 63.0156 93.8845Z" fill="#1F7E22"/>
<path d="M23.6309 6.59937C24.806 6.59937 25.7598 7.55312 25.7598 8.72827C25.7598 9.90343 24.806 10.8572 23.6309 10.8572C22.4557 10.8572 21.502 9.90343 21.502 8.72827C21.502 7.55312 22.4557 6.59937 23.6309 6.59937Z" fill="#1F7E22"/>
<path d="M12.9863 53.4353C14.1615 53.4353 15.1152 54.3891 15.1152 55.5642C15.1152 56.7394 14.1615 57.6931 12.9863 57.6931C11.8112 57.6931 10.8574 56.7394 10.8574 55.5642C10.8574 54.3891 11.8112 53.4353 12.9863 53.4353Z" fill="#349A37"/>
<path d="M9.79297 27.8884C11.5557 27.8884 12.9863 29.3191 12.9863 31.0818C12.9863 32.8445 11.5557 34.2751 9.79297 34.2751C8.03023 34.2751 6.59961 32.8445 6.59961 31.0818C6.59961 29.3191 8.03023 27.8884 9.79297 27.8884Z" fill="#ECECF1"/>
<path d="M68.1556 45.9841L78.3592 35.7805C79.1906 34.9492 79.1906 33.6011 78.3592 32.7696C77.5277 31.9385 76.1801 31.9385 75.3483 32.7696L65.1447 42.9732L54.9411 32.7696C54.1097 31.9385 52.7617 31.9385 51.9301 32.7696C51.0988 33.6009 51.0988 34.9489 51.9301 35.7805L62.1338 45.9841L51.9301 56.1878C51.0988 57.0191 51.0988 58.3671 51.9301 59.1987C52.3459 59.6142 52.8907 59.8222 53.4355 59.8222C53.9803 59.8222 54.5253 59.6142 54.9408 59.1987L65.1445 48.995L75.3481 59.1987C75.7639 59.6142 76.3087 59.8222 76.8535 59.8222C77.3982 59.8222 77.943 59.6142 78.3588 59.1987C79.1902 58.3673 79.1902 57.0193 78.3588 56.1878L68.1556 45.9841Z" fill="#1F7E22"/>
</svg>
