<svg width="16" height="16" viewBox="0 0 16 16" fill="none" xmlns="http://www.w3.org/2000/svg">
<g clip-path="url(#clip0_268_450)">
<path d="M2.78234 5.49257C2.82081 5.57131 2.84317 5.65701 2.84817 5.74451C3.04817 5.69173 3.26136 5.73479 3.42525 5.8609C3.58914 5.98701 3.68539 6.18214 3.68553 6.38895L3.68706 8.39505C4.01539 8.12283 4.49136 8.12394 4.8183 8.39782L4.94024 8.49157C5.0376 8.56643 5.06524 8.70129 5.00524 8.80838L3.82192 10.9284L3.51081 16H6.29482L5.99885 13.2493L4.8126 11.125C4.75274 11.0175 4.78038 10.8824 4.87774 10.807L4.99969 10.7125C5.09427 10.6328 5.20469 10.5742 5.32371 10.5406L5.6426 5.22618C5.64496 5.18882 5.65565 5.15257 5.67385 5.12007L6.78051 3.13522C6.6212 3.02703 6.40634 3.05397 6.27857 3.198L5.93982 3.58299C5.87135 3.66077 5.76204 3.68799 5.6651 3.65147C5.56829 3.61494 5.50413 3.5223 5.50399 3.41869L5.50204 0.769263C5.50191 0.677597 5.42899 0.602875 5.33746 0.600236C5.24593 0.597736 5.16885 0.668291 5.16357 0.759818C5.16357 1.03051 5.16357 1.32468 5.16344 1.6044C5.16344 2.2187 5.16316 2.75869 5.16344 2.81092C5.16357 2.87675 5.13746 2.9398 5.0908 2.98619C5.04427 3.03244 4.98108 3.05828 4.91524 3.05786H4.91441C4.84885 3.05841 4.7858 3.03286 4.73927 2.98675C4.69261 2.94078 4.66636 2.878 4.66622 2.81244C4.66608 2.76008 4.66677 2.22064 4.66691 1.60537C4.66691 1.40343 4.66844 1.19357 4.66858 0.99065C4.66858 0.987317 4.67122 0.983984 4.67122 0.980511V0.162739C4.66774 0.0696842 4.58969 -0.00309316 4.4965 0.000101262H4.48663C4.44219 -0.00128762 4.39913 0.0151012 4.36691 0.0457954C4.33483 0.0764897 4.31636 0.118712 4.31566 0.163156V2.81439C4.31566 2.95189 4.20414 3.06328 4.06678 3.06328C3.92928 3.06328 3.81789 2.95189 3.81789 2.81439V0.505931C3.81317 0.41121 3.73497 0.336627 3.64011 0.336627C3.54511 0.336627 3.46692 0.41121 3.46233 0.505931V2.81439C3.46233 2.95189 3.35081 3.06328 3.21345 3.06328C3.07595 3.06328 2.96456 2.95189 2.96456 2.81439V1.45356C2.96456 1.36023 2.90623 1.28009 2.81289 1.28009H2.80359C2.70998 1.2812 2.63442 1.35731 2.63428 1.45093C2.63345 1.79398 2.70442 3.55883 2.77956 5.42507L2.78234 5.49257Z" fill="#349A37"/>
<path d="M15.2048 8.81784L14.8661 9.20298C14.7976 9.28062 14.6883 9.30798 14.5914 9.27145C14.4946 9.23492 14.4304 9.14215 14.4304 9.03867L14.4283 6.3891C14.4282 6.29743 14.3554 6.22257 14.2637 6.21993C14.1722 6.21729 14.0951 6.28799 14.0899 6.37938V7.22368C14.0899 7.83798 14.0896 8.37729 14.0899 8.42965C14.09 8.4952 14.0637 8.55826 14.0171 8.60437C13.9705 8.65062 13.9072 8.67617 13.8417 8.67548H13.8407C13.7754 8.67631 13.7124 8.6509 13.6657 8.6052C13.619 8.55937 13.5926 8.49687 13.5924 8.43145C13.5924 8.37909 13.5926 7.84076 13.5928 7.22562C13.5928 7.02354 13.5939 6.81382 13.5939 6.61077C13.5939 6.60743 13.5957 6.6041 13.5957 6.60077V5.78299C13.5935 5.68966 13.5161 5.61577 13.4228 5.61771H13.4129C13.3196 5.61577 13.2422 5.6898 13.2401 5.78327V8.43451C13.2401 8.57201 13.1286 8.6834 12.9912 8.6834C12.8537 8.6834 12.7424 8.57201 12.7424 8.43451V6.12618C12.7456 6.06688 12.7158 6.01063 12.665 5.97993C12.6142 5.94924 12.5506 5.94924 12.4996 5.97993C12.4487 6.01063 12.419 6.06688 12.4224 6.12618V8.43465C12.4224 8.57201 12.3108 8.68354 12.1735 8.68354C12.036 8.68354 11.9246 8.57201 11.9246 8.43465V7.07368C11.9175 6.9759 11.8371 6.89965 11.7392 6.89771H11.7299C11.6362 6.89868 11.5608 6.97465 11.5606 7.0684C11.5597 7.41035 11.6304 9.16742 11.7051 11.0256C11.7869 13.0552 11.8711 15.1466 11.8885 15.9999H14.2529L14.5692 10.8428C14.5714 10.8066 14.5821 10.7714 14.6001 10.7399L15.7069 8.75506C15.5475 8.64687 15.3326 8.67381 15.2048 8.81784Z" fill="#349A37"/>
<path d="M6.63051 8.70392L6.62857 11.3533C6.62843 11.4568 6.56427 11.5495 6.46732 11.5858C6.37052 11.6224 6.26121 11.595 6.19288 11.5174L5.85399 11.1321C5.72635 10.9879 5.51149 10.9608 5.35205 11.0689L6.45885 13.0529C6.4751 13.0815 6.48524 13.1132 6.48885 13.146L6.79551 16.0003H9.17092C9.18994 15.2536 9.27717 13.6797 9.35522 12.2872C9.42925 10.9671 9.49911 9.72072 9.49827 9.3828C9.49827 9.28864 9.42314 9.21155 9.32897 9.20919H9.31966C9.22453 9.21405 9.15022 9.29308 9.15147 9.38822V10.749C9.15147 10.8865 9.03994 10.9979 8.90258 10.9979C8.76508 10.9979 8.6537 10.8865 8.6537 10.749V8.44058C8.64897 8.34586 8.57078 8.27128 8.47592 8.27128C8.38092 8.27128 8.30273 8.34586 8.29814 8.44058V10.749C8.29814 10.8865 8.18662 10.9979 8.04926 10.9979C7.91176 10.9979 7.80037 10.8865 7.80037 10.749V8.09781C7.80037 8.00448 7.73926 7.9292 7.64593 7.9292H7.63606C7.59259 7.92962 7.55134 7.94795 7.5219 7.97989C7.49245 8.0117 7.47732 8.05434 7.48037 8.09767V8.91544C7.48037 8.91905 7.47357 8.92086 7.47343 8.92419C7.47343 9.12711 7.4669 9.33558 7.4669 9.53752C7.4669 10.1527 7.46718 10.6922 7.4669 10.7446C7.46648 10.8099 7.43995 10.8722 7.39315 10.9178C7.34634 10.9633 7.28329 10.9883 7.21801 10.9871H7.21718C7.15176 10.9882 7.08857 10.9629 7.0419 10.917C6.99537 10.871 6.96912 10.8082 6.96926 10.7428C6.9694 10.6906 6.96926 10.1546 6.96926 9.54044C6.96926 9.26072 6.96926 8.96572 6.96926 8.69503C6.96454 8.60322 6.8876 8.53183 6.79565 8.53433C6.70371 8.5367 6.63051 8.61211 6.63079 8.70406L6.63051 8.70392Z" fill="#349A37"/>
<path d="M8.80379 6.21766L8.90879 7.92723C9.06198 8.05376 9.15073 8.24181 9.15101 8.44042V8.74264C9.20504 8.7232 9.26184 8.7125 9.31921 8.71111H9.32851C9.69657 8.71292 9.9942 9.01097 9.99559 9.37903C9.99643 9.73139 9.92948 10.9304 9.8517 12.3157C9.77407 13.7019 9.68726 15.2534 9.66837 16.0001H11.3903C11.3725 15.1468 11.2855 12.979 11.2075 11.0458C11.1293 9.10125 11.0617 7.42473 11.0625 7.0721C11.0641 6.7289 11.3253 6.44266 11.667 6.40988L11.6677 6.39349C11.7423 4.5385 11.8128 2.78643 11.812 2.44476C11.8116 2.35143 11.736 2.27601 11.6427 2.27574H11.6334C11.5395 2.27587 11.4631 2.35157 11.4621 2.44546V3.80628C11.4621 3.94378 11.3506 4.05517 11.2132 4.05517C11.0757 4.05517 10.9643 3.94378 10.9643 3.80628V1.49782C10.9596 1.40296 10.8814 1.32852 10.7866 1.32852C10.6916 1.32852 10.6134 1.40296 10.6088 1.49782V3.80628C10.6088 3.94378 10.4973 4.05517 10.3599 4.05517C10.2224 4.05517 10.111 3.94378 10.111 3.80628V1.15505C10.111 1.06171 10.053 0.995742 9.95962 0.995742H9.94976C9.90712 0.993937 9.86559 1.01005 9.83532 1.04033C9.80518 1.0706 9.78907 1.11227 9.79101 1.15491V1.97268C9.79101 1.97615 9.78573 1.97921 9.78573 1.98254C9.78573 2.1856 9.78059 2.39504 9.78073 2.59712C9.78073 3.21226 9.78087 3.7542 9.78073 3.80656C9.78004 3.9435 9.66879 4.05406 9.53184 4.05364H9.53087C9.4649 4.05364 9.40171 4.02739 9.35518 3.98073C9.30865 3.93406 9.28254 3.87073 9.28282 3.80475C9.28309 3.75239 9.28282 3.21198 9.28282 2.59768C9.28282 2.31796 9.28282 2.0231 9.28282 1.7524C9.27796 1.66088 9.20101 1.58991 9.10935 1.59227C9.01768 1.59477 8.94448 1.66963 8.94448 1.76129L8.9424 4.41072C8.94226 4.51433 8.8781 4.60697 8.78129 4.6435C8.68449 4.68003 8.57504 4.65267 8.50671 4.57503L8.16796 4.18989C8.04018 4.04586 7.82532 4.01892 7.66602 4.12711L8.77282 6.11196C8.79087 6.14446 8.80143 6.18057 8.80379 6.21766Z" fill="#349A37"/>
<path d="M3.32842 10.8428C3.33065 10.8066 3.34134 10.7715 3.3594 10.7399L4.46619 8.75508C4.30675 8.64702 4.09203 8.67383 3.96425 8.81799L3.62537 9.20299C3.55703 9.28077 3.44759 9.30799 3.35078 9.27146C3.25384 9.23494 3.18967 9.1423 3.18967 9.03883L3.18759 6.38926C3.18745 6.29745 3.11426 6.22245 3.02245 6.22023C2.93065 6.21801 2.8537 6.28926 2.84912 6.38106C2.84912 6.63703 2.84912 6.91439 2.84898 7.18008C2.84898 7.7973 2.8487 8.37633 2.84898 8.42938C2.84912 8.49508 2.82301 8.55799 2.77648 8.60424C2.72982 8.65049 2.66662 8.67619 2.60107 8.67549H2.59996C2.53468 8.67633 2.47176 8.65105 2.42523 8.60522C2.37871 8.55938 2.35246 8.49688 2.35218 8.43147C2.35204 8.37744 2.35329 7.82466 2.35343 7.17995C2.35343 6.99175 2.35565 6.79786 2.35565 6.60981C2.35565 6.60675 2.35996 6.6037 2.35996 6.60064V5.78287C2.35524 5.6887 2.27635 5.61537 2.18218 5.61773H2.17232C2.12801 5.6169 2.08524 5.63412 2.05357 5.66523C2.02204 5.69634 2.00427 5.73884 2.0044 5.78329V8.43452C2.0044 8.57202 1.89288 8.68341 1.75552 8.68341C1.61802 8.68341 1.50663 8.57202 1.50663 8.43452V6.1262C1.50191 6.03134 1.42371 5.9569 1.32885 5.9569C1.23385 5.9569 1.15566 6.03134 1.15108 6.1262V8.43466C1.15108 8.57202 1.03955 8.68355 0.902189 8.68355C0.76469 8.68355 0.653302 8.57202 0.653302 8.43466V7.0737C0.653302 6.98036 0.591913 6.89772 0.498442 6.89772H0.489136C0.395525 6.8987 0.320109 6.97467 0.319832 7.06842C0.318998 7.4105 0.389692 9.16744 0.464553 11.0256C0.546358 13.0552 0.630524 15.1466 0.647746 15.9999H3.01218L3.32842 10.8428Z" fill="#349A37"/>
</g>
<defs>
<clipPath id="clip0_268_450">
<rect width="16" height="16" fill="white"/>
</clipPath>
</defs>
</svg>
