<svg width="16" height="17" viewBox="0 0 16 17" fill="none" xmlns="http://www.w3.org/2000/svg">
<path d="M15.0208 7.46396V14.1696C15.0213 14.4536 14.9658 14.7349 14.8574 14.9974C14.7491 15.2599 14.5901 15.4984 14.3895 15.6994C14.1889 15.9004 13.9507 16.0598 13.6885 16.1686C13.4262 16.2774 13.1451 16.3334 12.8612 16.3334H10.2697C10.1552 16.3334 10.0453 16.2879 9.96431 16.2068C9.88331 16.1258 9.8378 16.0159 9.8378 15.9013V10.7165C9.8378 10.602 9.7923 10.4921 9.7113 10.411C9.63029 10.33 9.52043 10.2845 9.40588 10.2845H6.81437C6.69982 10.2845 6.58996 10.33 6.50896 10.411C6.42796 10.4921 6.38245 10.602 6.38245 10.7165V15.9013C6.38245 16.0159 6.33695 16.1258 6.25595 16.2068C6.17495 16.2879 6.06509 16.3334 5.95053 16.3334H3.35902C2.78627 16.3334 2.23696 16.1058 1.83196 15.7006C1.42696 15.2955 1.19943 14.746 1.19943 14.1731V7.46396L1.04256 7.59392C0.954125 7.66726 0.84019 7.70245 0.725817 7.69176C0.611445 7.68106 0.506004 7.62536 0.432691 7.53689C0.359377 7.44843 0.324197 7.33445 0.334889 7.22004C0.345581 7.10563 0.40127 7.00015 0.489704 6.92682L7.83577 0.877909C7.91338 0.813243 8.01119 0.777832 8.1122 0.777832C8.21321 0.777832 8.31102 0.813243 8.38863 0.877909L15.7312 6.92682C15.775 6.9629 15.8113 7.00726 15.8379 7.05737C15.8646 7.10747 15.8811 7.16233 15.8866 7.21882C15.892 7.27531 15.8863 7.33232 15.8697 7.3866C15.8532 7.44088 15.8261 7.49136 15.79 7.53516C15.7539 7.57897 15.7096 7.61523 15.6595 7.64189C15.6094 7.66855 15.5545 7.68508 15.4981 7.69054C15.4416 7.69599 15.3846 7.69027 15.3304 7.67369C15.2761 7.65712 15.2256 7.63001 15.1818 7.59392L15.0208 7.46396Z" fill="white"/>
</svg>
