<svg width="20" height="20" viewBox="0 0 20 20" fill="none" xmlns="http://www.w3.org/2000/svg">
<path d="M13.313 0H6.65843C5.48406 0.00133168 4.53242 0.952981 4.53125 2.12735V17.8728C4.53242 19.0471 5.48406 19.9988 6.65843 20H13.313C14.4874 19.9988 15.439 19.0471 15.4403 17.8728V2.12735C15.439 0.952981 14.4874 0.00133168 13.313 0V0ZM9.98579 18.1819C9.48358 18.1819 9.07659 17.7749 9.07659 17.2727C9.07659 16.7706 9.48358 16.3636 9.98579 16.3636C10.4878 16.3636 10.8948 16.7706 10.8948 17.2727C10.8948 17.7749 10.4878 18.1819 9.98579 18.1819ZM11.3494 2.72727H8.62216C8.37114 2.72727 8.16756 2.52369 8.16756 2.27267C8.16756 2.02165 8.37114 1.81824 8.62216 1.81824H11.3494C11.6004 1.81824 11.8039 2.02165 11.8039 2.27267C11.8039 2.52369 11.6004 2.72727 11.3494 2.72727Z" fill="#349A37"/>
</svg>
