<svg width="14" height="17" viewBox="0 0 14 17" fill="none" xmlns="http://www.w3.org/2000/svg">
<path d="M7 17C6.87382 16.9998 6.75236 16.9546 6.66 16.8734C4.74635 15.2738 3.06841 13.4391 1.671 11.4183C0.655621 9.99196 0.0773387 8.32833 0 6.61111C0 4.85774 0.737498 3.17617 2.05025 1.93635C3.36301 0.696526 5.14348 0 7 0C8.85652 0 10.637 0.696526 11.9497 1.93635C13.2625 3.17617 14 4.85774 14 6.61111C13.9228 8.32865 13.3446 9.99263 12.329 11.4193C10.9316 13.44 9.25365 15.2748 7.34 16.8744C7.24748 16.9552 7.12605 17.0001 7 17ZM7 3.77778C6.40666 3.77778 5.82664 3.94395 5.33329 4.25528C4.83994 4.56661 4.45542 5.00912 4.22836 5.52684C4.0013 6.04457 3.94189 6.61425 4.05764 7.16387C4.1734 7.71348 4.45912 8.21833 4.87868 8.61458C5.29824 9.01083 5.83279 9.28068 6.41473 9.39C6.99667 9.49933 7.59987 9.44322 8.14805 9.22877C8.69623 9.01432 9.16476 8.65117 9.49441 8.18523C9.82405 7.71929 10 7.17149 10 6.61111C10 5.85966 9.68393 5.13899 9.12132 4.60764C8.55871 4.07629 7.79565 3.77778 7 3.77778Z" fill="#349A37"/>
</svg>
