<svg width="17" height="17" viewBox="0 0 17 17" fill="none" xmlns="http://www.w3.org/2000/svg">
<g clip-path="url(#clip0_1067_191)">
<path fill-rule="evenodd" clip-rule="evenodd" d="M8.62193 14.2925V15.1397C8.62193 15.8191 8.96053 16.4056 9.54892 16.7453C9.83201 16.9087 10.148 16.9999 10.4756 17C10.8034 17.0002 11.1193 16.9089 11.4026 16.7453L15.1697 14.5703C15.7581 14.2306 16.0967 13.6442 16.0967 12.9647V1.854C16.0967 0.831639 15.265 0 14.2427 0H5.94619C4.9238 0 4.09206 0.831572 4.09206 1.854V4.19611C4.09206 4.53209 4.36485 4.80489 4.70084 4.80489C5.03692 4.80489 5.30948 4.53213 5.30948 4.19611V1.854C5.30948 1.50294 5.59513 1.21729 5.94619 1.21729H13.2161L9.54892 3.33489C8.96073 3.67456 8.62193 4.26092 8.62193 4.94016V13.075H5.94619C5.59516 13.075 5.30948 12.7895 5.30948 12.4385V10.3853C5.30948 10.0491 5.03708 9.77653 4.70084 9.77653C4.36472 9.77653 4.09206 10.0492 4.09206 10.3853V12.4385C4.09206 13.4609 4.9238 14.2925 5.94619 14.2925H8.62193ZM2.98128 7.75486L3.65168 8.42526C3.88939 8.66296 3.88932 9.04832 3.65168 9.28605C3.53727 9.40054 3.38307 9.46415 3.22127 9.46415C3.05931 9.46415 2.90528 9.4007 2.79069 9.28605L1.08143 7.57649C0.843795 7.33882 0.843761 6.95366 1.08143 6.716L2.79069 5.0067C3.02843 4.76896 3.41382 4.76906 3.65165 5.00667C3.88929 5.24413 3.88922 5.62966 3.65165 5.86719L2.98128 6.53743H7.47233C7.80865 6.53743 8.08098 6.80996 8.08098 7.14624C8.08098 7.48252 7.80862 7.75489 7.47233 7.75489H2.98128V7.75486Z" fill="#E21D1D"/>
</g>
<defs>
<clipPath id="clip0_1067_191">
<rect width="17" height="17" fill="white" transform="matrix(-1 0 0 1 17 0)"/>
</clipPath>
</defs>
</svg>
