<svg width="16" height="17" viewBox="0 0 16 17" fill="none" xmlns="http://www.w3.org/2000/svg">
<g clip-path="url(#clip0_39_366)">
<path d="M15.1235 1.22342H3.88898C3.65035 1.22342 3.45683 1.41695 3.45683 1.65557V14.6185C3.45525 15.0874 3.2997 15.543 3.01392 15.9148H13.3952C14.5879 15.9136 15.5544 14.947 15.5556 13.7542V1.65557C15.5556 1.41695 15.3621 1.22342 15.1235 1.22342V1.22342ZM12.5309 12.4579H6.48157C6.24295 12.4579 6.04942 12.2646 6.04942 12.0259C6.04942 11.7873 6.24295 11.5938 6.48157 11.5938H12.5309C12.7695 11.5938 12.9631 11.7873 12.9631 12.0259C12.9631 12.2646 12.7695 12.4579 12.5309 12.4579ZM12.5309 9.86534H6.48157C6.24295 9.86534 6.04942 9.67197 6.04942 9.43335C6.04942 9.19472 6.24295 9.0012 6.48157 9.0012H12.5309C12.7695 9.0012 12.9631 9.19472 12.9631 9.43335C12.9631 9.67197 12.7695 9.86534 12.5309 9.86534ZM12.5309 7.27275H6.48157C6.24295 7.27275 6.04942 7.07938 6.04942 6.84076C6.04942 6.60213 6.24295 6.4086 6.48157 6.4086H12.5309C12.7695 6.4086 12.9631 6.60213 12.9631 6.84076C12.9631 7.07938 12.7695 7.27275 12.5309 7.27275ZM12.5309 4.68016H6.48157C6.24295 4.68016 6.04942 4.48679 6.04942 4.24816C6.04942 4.00954 6.24295 3.81601 6.48157 3.81601H12.5309C12.7695 3.81601 12.9631 4.00954 12.9631 4.24816C12.9631 4.48679 12.7695 4.68016 12.5309 4.68016Z" fill="#349A37"/>
<path d="M2.16044 2.95187H0.432152C0.193527 2.95187 0 3.14524 0 3.38387V14.6185C0 15.3344 0.580422 15.9148 1.2963 15.9148C2.01217 15.9148 2.59259 15.3344 2.59259 14.6185V3.38387C2.59259 3.14524 2.39907 2.95187 2.16044 2.95187Z" fill="#349A37"/>
</g>
<defs>
<clipPath id="clip0_39_366">
<rect width="15.5556" height="15.5556" fill="white" transform="translate(0 0.777832)"/>
</clipPath>
</defs>
</svg>
