<svg width="20" height="20" viewBox="0 0 20 20" fill="none" xmlns="http://www.w3.org/2000/svg">
<g clip-path="url(#clip0_234_1156)">
<path d="M7.2915 14.6766V18.5416C7.2915 18.8116 7.46484 19.0508 7.7215 19.1358C7.78567 19.1566 7.8515 19.1666 7.9165 19.1666C8.1115 19.1666 8.29984 19.075 8.41984 18.9116L10.6807 15.835L7.2915 14.6766Z" fill="#349A37"/>
<path d="M19.7376 0.115846C19.5459 -0.0199872 19.2942 -0.0383206 19.0859 0.0708462L0.335871 9.86253C0.114204 9.97836 -0.0166296 10.215 0.00170373 10.4642C0.0208704 10.7142 0.186704 10.9275 0.422538 11.0084L5.63504 12.79L16.7359 3.29835L8.14588 13.6475L16.8817 16.6334C16.9467 16.655 17.0151 16.6667 17.0834 16.6667C17.1967 16.6667 17.3092 16.6359 17.4084 16.5759C17.5667 16.4792 17.6742 16.3167 17.7017 16.1342L19.9934 0.717514C20.0276 0.48418 19.9292 0.252513 19.7376 0.115846Z" fill="#349A37"/>
</g>
<defs>
<clipPath id="clip0_234_1156">
<rect width="20" height="20" fill="white"/>
</clipPath>
</defs>
</svg>
