<svg width="26" height="23" viewBox="0 0 26 23" fill="none" xmlns="http://www.w3.org/2000/svg">
<path fill-rule="evenodd" clip-rule="evenodd" d="M3.44586 16.0513H1.49023C1.35641 16.0513 1.24259 16.148 1.22172 16.2793L0.430762 21.2656C0.415042 21.364 0.491675 21.4527 0.592048 21.4527H1.52568C1.65951 21.4527 1.77333 21.356 1.7942 21.2244L2.00753 19.8796C2.02811 19.7479 2.1422 19.6513 2.27575 19.6513H2.89483C4.18308 19.6513 4.92652 19.0314 5.12078 17.8031C5.20825 17.2657 5.12448 16.8435 4.87133 16.5477C4.59344 16.2231 4.10037 16.0513 3.44586 16.0513ZM3.67149 17.8725C3.56456 18.5702 3.02838 18.5702 2.50995 18.5702H2.21484L2.42187 17.2671C2.43416 17.1884 2.50279 17.1304 2.58286 17.1304H2.71812C3.07127 17.1304 3.40444 17.1304 3.57661 17.3305C3.67916 17.45 3.71066 17.6273 3.67149 17.8725ZM9.29172 17.8501H8.35521C8.27542 17.8501 8.20647 17.9081 8.19417 17.9869L8.15275 18.2473L8.08724 18.153C7.88451 17.8604 7.43247 17.7626 6.98122 17.7626C5.94626 17.7626 5.06242 18.5419 4.89026 19.6352C4.8008 20.1805 4.92797 20.7019 5.23908 21.0656C5.52452 21.4 5.93289 21.5393 6.41868 21.5393C7.2525 21.5393 7.715 21.0061 7.715 21.0061L7.67318 21.265C7.65743 21.3639 7.73405 21.4526 7.83383 21.4526H8.67744C8.81163 21.4526 8.92477 21.3559 8.94594 21.2243L9.45211 18.0372C9.46812 17.9392 9.39177 17.8501 9.29172 17.8501ZM7.98628 19.6625C7.89589 20.1944 7.47124 20.5515 6.92974 20.5515C6.6578 20.5515 6.44038 20.4648 6.30091 20.3005C6.16249 20.1373 6.10982 19.905 6.15389 19.6463C6.23831 19.1188 6.67011 18.7501 7.2034 18.7501C7.46926 18.7501 7.68549 18.8379 7.82788 19.0036C7.97053 19.1711 8.02717 19.4048 7.98628 19.6625ZM13.3383 17.85H14.2794C14.4112 17.85 14.4881 17.9969 14.4132 18.1044L11.2832 22.5968C11.2325 22.6696 11.149 22.7129 11.0598 22.7129H10.1199C9.98752 22.7129 9.91024 22.5647 9.98686 22.4569L10.9615 21.089L9.92493 18.0643C9.88906 17.9592 9.96714 17.85 10.0796 17.85H11.0044C11.1245 17.85 11.2305 17.9284 11.2652 18.0427L11.8153 19.8696L13.1133 17.9685C13.1641 17.8943 13.2486 17.85 13.3383 17.85Z" fill="#253B80"/>
<path fill-rule="evenodd" clip-rule="evenodd" d="M23.5418 21.2654L24.3444 16.1879C24.3567 16.1091 24.4254 16.051 24.5052 16.0508H25.4087C25.5085 16.0508 25.5851 16.1397 25.5694 16.2381L24.7779 21.2242C24.7573 21.3558 24.6435 21.4525 24.5094 21.4525H23.7025C23.6027 21.4525 23.5261 21.3638 23.5418 21.2654ZM17.3952 16.051H15.4392C15.3056 16.051 15.1918 16.1478 15.1709 16.2791L14.38 21.2654C14.3642 21.3638 14.4409 21.4525 14.5408 21.4525H15.5444C15.6377 21.4525 15.7175 21.3849 15.732 21.2928L15.9564 19.8793C15.9771 19.7476 16.0912 19.6511 16.2247 19.6511H16.8435C18.132 19.6511 18.8753 19.0312 19.0697 17.8029C19.1574 17.2655 19.0731 16.8433 18.8201 16.5475C18.5423 16.2229 18.0497 16.051 17.3952 16.051ZM17.6208 17.8722C17.5141 18.57 16.9779 18.57 16.4592 18.57H16.1643L16.3717 17.2668C16.384 17.1882 16.452 17.1301 16.5324 17.1301H16.6676C17.0205 17.1301 17.354 17.1301 17.526 17.3303C17.6287 17.4497 17.6599 17.6271 17.6208 17.8722ZM23.2405 17.8499H22.3046C22.2242 17.8499 22.1559 17.9079 22.1439 17.9867L22.1024 18.2471L22.0367 18.1528C21.8339 17.8601 21.3822 17.7624 20.9309 17.7624C19.8959 17.7624 19.0124 18.5417 18.8402 19.635C18.751 20.1803 18.8777 20.7017 19.1888 21.0654C19.4747 21.3997 19.8826 21.5391 20.3684 21.5391C21.2022 21.5391 21.6646 21.0059 21.6646 21.0059L21.6229 21.2647C21.6071 21.3637 21.6837 21.4524 21.7842 21.4524H22.6274C22.7609 21.4524 22.8747 21.3557 22.8956 21.2241L23.4021 18.037C23.4175 17.9389 23.3409 17.8499 23.2405 17.8499ZM21.9352 19.6622C21.8453 20.1942 21.4201 20.5513 20.8785 20.5513C20.6071 20.5513 20.3893 20.4646 20.2497 20.3003C20.1112 20.1371 20.0592 19.9047 20.1028 19.6461C20.1876 19.1186 20.6189 18.7499 21.1522 18.7499C21.4182 18.7499 21.6342 18.8376 21.7768 19.0034C21.92 19.1709 21.9766 19.4046 21.9352 19.6622Z" fill="#179BD7"/>
<path d="M10.6835 14.2673L10.9239 12.7488L10.3884 12.7365H7.83105L9.60826 1.53168C9.61369 1.49785 9.63168 1.46631 9.65789 1.44392C9.68409 1.42152 9.7177 1.40918 9.75263 1.40918H14.0646C15.4962 1.40918 16.4841 1.70538 16.9999 2.29C17.2417 2.56426 17.3957 2.85085 17.4702 3.16625C17.5483 3.4972 17.5497 3.89258 17.4734 4.37482L17.4678 4.41002V4.719L17.7097 4.85523C17.9134 4.96264 18.0751 5.0856 18.1992 5.22639C18.4062 5.46087 18.54 5.7589 18.5965 6.11223C18.6548 6.47563 18.6355 6.90804 18.54 7.39759C18.4296 7.96073 18.2512 8.4512 18.0104 8.85253C17.7887 9.22232 17.5064 9.52896 17.1714 9.76673C16.8514 9.99252 16.4712 10.164 16.0414 10.2737C15.6248 10.3815 15.15 10.4359 14.6292 10.4359H14.2936C14.0537 10.4359 13.8205 10.5219 13.6376 10.6759C13.4542 10.8332 13.3327 11.0479 13.2955 11.2829L13.2703 11.4196L12.8455 14.0958L12.8262 14.1941C12.8211 14.2253 12.8124 14.2408 12.7996 14.2513C12.788 14.2608 12.7715 14.2673 12.7554 14.2673H10.6835Z" fill="#253B80"/>
<path d="M17.9385 4.4458C17.9257 4.52762 17.911 4.61126 17.8944 4.6972C17.3257 7.60022 15.3803 8.60309 12.8955 8.60309H11.6304C11.3266 8.60309 11.0705 8.82248 11.0232 9.12051L10.3754 13.2052L10.192 14.3629C10.1611 14.5586 10.3129 14.735 10.5114 14.735H12.7554C13.0211 14.735 13.2467 14.5431 13.2885 14.2825L13.3106 14.1691L13.7332 11.5033L13.7603 11.3571C13.8016 11.0957 14.0277 10.9037 14.2934 10.9037H14.629C16.803 10.9037 18.5049 10.0261 19.0023 7.4864C19.2101 6.42548 19.1025 5.53963 18.5527 4.9166C18.3863 4.72874 18.1799 4.57287 17.9385 4.4458Z" fill="#179BD7"/>
<path d="M17.3435 4.21027C17.2567 4.18513 17.167 4.16227 17.075 4.14171C16.9826 4.1216 16.8879 4.10377 16.7905 4.08823C16.4493 4.03338 16.0756 4.00732 15.6752 4.00732H12.2954C12.2122 4.00732 12.1332 4.02606 12.0624 4.05989C11.9065 4.13439 11.7907 4.28113 11.7627 4.46076L11.0436 8.98876L11.0229 9.12085C11.0703 8.82282 11.3264 8.60341 11.6302 8.60341H12.8953C15.3801 8.60341 17.3256 7.6001 17.8942 4.69754C17.9112 4.6116 17.9255 4.52796 17.9383 4.44614C17.7945 4.37026 17.6386 4.30535 17.4708 4.25004C17.4295 4.23632 17.3868 4.22307 17.3435 4.21027Z" fill="#222D65"/>
<path d="M11.7623 4.46059C11.7904 4.28094 11.9063 4.13422 12.0621 4.06016C12.1334 4.02634 12.212 4.0076 12.2951 4.0076H15.675C16.0754 4.0076 16.4491 4.03365 16.7901 4.08851C16.8877 4.10405 16.9824 4.12187 17.0748 4.14198C17.1667 4.16256 17.2563 4.18541 17.3433 4.21055C17.3864 4.22335 17.4292 4.2366 17.471 4.24986C17.6388 4.30516 17.7947 4.37053 17.9385 4.44595C18.1078 3.37315 17.9372 2.64271 17.3539 1.98129C16.7107 1.25314 15.5499 0.941406 14.0646 0.941406H9.7525C9.44906 0.941406 9.19036 1.1608 9.14338 1.45929L7.34738 12.7793C7.31192 13.0032 7.48567 13.2053 7.71275 13.2053H10.375L11.0434 8.98857L11.7623 4.46059Z" fill="#253B80"/>
</svg>
