<svg width="18" height="18" viewBox="0 0 18 18" fill="none" xmlns="http://www.w3.org/2000/svg">
<g clip-path="url(#clip0_39_373)">
<path d="M7.23633 8.62289C7.50553 8.62289 7.72461 8.84197 7.72461 9.11118C7.72461 9.38038 7.50553 9.59946 7.23633 9.59946C6.96712 9.59946 6.74805 9.38038 6.74805 9.11118C6.74805 8.84197 6.96712 8.62289 7.23633 8.62289Z" fill="#349A37"/>
<path d="M7.72461 6.7186V7.73032C7.57194 7.67595 7.40755 7.64633 7.23633 7.64633C6.42871 7.64633 5.77148 8.30356 5.77148 9.11118C5.77148 9.91879 6.42871 10.576 7.23633 10.576C7.40755 10.576 7.57194 10.5464 7.72461 10.492V11.5038C7.56478 11.5363 7.40137 11.5526 7.23633 11.5526C5.8903 11.5526 4.79492 10.4572 4.79492 9.11118C4.79492 7.76515 5.8903 6.66977 7.23633 6.66977C7.40137 6.66977 7.56478 6.68605 7.72461 6.7186Z" fill="#349A37"/>
<path d="M3.81836 9.11118C3.81836 10.9959 5.35156 12.5291 7.23633 12.5291C7.40072 12.5291 7.5638 12.5178 7.72461 12.4943V15.4588H6.25977C5.99023 15.4588 5.77148 15.2401 5.77148 14.9706V14.2791C5.37207 14.1655 4.98698 14.0047 4.62012 13.7987L4.12891 14.2902C3.93815 14.481 3.62923 14.481 3.43848 14.2902L2.05729 12.909C1.86647 12.7182 1.86722 12.4087 2.05729 12.2186L2.54883 11.7271C2.34245 11.3605 2.18197 10.9754 2.06836 10.576H1.37695C1.10742 10.576 0.888672 10.3573 0.888672 10.0877V8.13461C0.888672 7.86508 1.10742 7.64633 1.37695 7.64633H2.06836C2.18197 7.24692 2.34245 6.86183 2.54883 6.49496L2.05729 6.00375C1.86722 5.81368 1.86647 5.50414 2.05729 5.31332L3.43848 3.93214C3.62923 3.74138 3.93815 3.74138 4.12891 3.93214L4.62044 4.42368C4.98698 4.2173 5.37207 4.05681 5.77148 3.94321V3.2518C5.77148 2.98227 5.99023 2.76352 6.25977 2.76352H7.72461V5.72804C7.5638 5.7046 7.40072 5.69321 7.23633 5.69321C5.35156 5.69321 3.81836 7.22641 3.81836 9.11118Z" fill="#349A37"/>
<path d="M14.6257 3.04933V5.69321H17.2695L14.6257 3.04933ZM10.166 5.69321H12.1842C12.4538 5.69321 12.6725 5.91196 12.6725 6.18149C12.6725 6.45102 12.4538 6.66977 12.1842 6.66977H10.166C9.89648 6.66977 9.67773 6.45102 9.67773 6.18149C9.67773 5.91196 9.89648 5.69321 10.166 5.69321ZM15.1139 12.5291H10.166C9.89648 12.5291 9.67773 12.3104 9.67773 12.0409C9.67773 11.7713 9.89648 11.5526 10.166 11.5526H15.1139C15.3835 11.5526 15.6022 11.7713 15.6022 12.0409C15.6022 12.3104 15.3835 12.5291 15.1139 12.5291ZM15.1139 10.576H10.166C9.89648 10.576 9.67773 10.3573 9.67773 10.0877C9.67773 9.81821 9.89648 9.59946 10.166 9.59946H15.1139C15.3835 9.59946 15.6022 9.81821 15.6022 10.0877C15.6022 10.3573 15.3835 10.576 15.1139 10.576ZM15.1139 8.62289H10.166C9.89648 8.62289 9.67773 8.40414 9.67773 8.13461C9.67773 7.86508 9.89648 7.64633 10.166 7.64633H15.1139C15.3835 7.64633 15.6022 7.86508 15.6022 8.13461C15.6022 8.40414 15.3835 8.62289 15.1139 8.62289ZM14.1374 6.66977C13.8678 6.66977 13.6491 6.45102 13.6491 6.18149V2.76352H8.70117V15.4588H17.0671C17.3366 15.4588 17.5553 15.2401 17.5553 14.9706V6.66977H14.1374Z" fill="#349A37"/>
</g>
<defs>
<clipPath id="clip0_39_373">
<rect width="16.6667" height="16.6667" fill="white" transform="translate(0.888672 0.777832)"/>
</clipPath>
</defs>
</svg>
