<svg width="24" height="24" viewBox="0 0 24 24" fill="none" xmlns="http://www.w3.org/2000/svg">
<path d="M10.8961 1.9313C5.95708 1.9313 1.93384 5.97063 1.93384 10.9294C1.93384 15.8881 5.95708 19.9353 10.8961 19.9353C13.0056 19.9353 14.9458 19.193 16.4792 17.9606L20.2123 21.7067C20.4007 21.888 20.6523 21.988 20.9133 21.9854C21.1742 21.9827 21.4238 21.8775 21.6084 21.6924C21.7931 21.5073 21.8982 21.2569 21.9012 20.9949C21.9043 20.7329 21.805 20.4802 21.6247 20.2908L17.8915 16.5427C19.12 15.0008 19.8602 13.0498 19.8602 10.9294C19.8602 5.97063 15.835 1.9313 10.8961 1.9313ZM10.8961 3.93134C14.7585 3.93134 17.8662 7.05153 17.8662 10.9294C17.8662 14.8072 14.7585 17.9352 10.8961 17.9352C7.03366 17.9352 3.92587 14.8072 3.92587 10.9294C3.92587 7.05153 7.03366 3.93134 10.8961 3.93134Z" fill="white"/>
</svg>
