<svg width="20" height="20" viewBox="0 0 20 20" fill="none" xmlns="http://www.w3.org/2000/svg">
<path d="M11.5167 18.3334H8.48332C8.29326 18.3334 8.1089 18.2684 7.96082 18.1493C7.81274 18.0302 7.70982 17.864 7.66915 17.6784L7.32999 16.1084C6.87753 15.9101 6.44851 15.6622 6.05082 15.3692L4.51999 15.8567C4.33879 15.9145 4.14328 15.9085 3.96592 15.8399C3.78856 15.7712 3.64003 15.6439 3.54499 15.4792L2.02499 12.8534C1.93094 12.6885 1.89564 12.4965 1.92485 12.309C1.95407 12.1214 2.04608 11.9493 2.18582 11.8209L3.37332 10.7375C3.31932 10.2468 3.31932 9.7516 3.37332 9.26085L2.18582 8.18002C2.04588 8.0515 1.95375 7.87925 1.92453 7.69151C1.8953 7.50376 1.93073 7.31166 2.02499 7.14669L3.54165 4.51919C3.63669 4.35445 3.78523 4.22718 3.96259 4.15851C4.13994 4.08984 4.33545 4.0839 4.51665 4.14169L6.04749 4.62919C6.25082 4.47919 6.46249 4.33919 6.68082 4.21252C6.89165 4.09419 7.10832 3.98669 7.32999 3.89085L7.66999 2.32252C7.71046 2.13685 7.81318 1.97059 7.96111 1.85131C8.10904 1.73203 8.29329 1.66689 8.48332 1.66669H11.5167C11.7067 1.66689 11.8909 1.73203 12.0389 1.85131C12.1868 1.97059 12.2895 2.13685 12.33 2.32252L12.6733 3.89169C12.9067 3.99502 13.135 4.11085 13.3558 4.24002C13.5617 4.35919 13.7608 4.49002 13.9525 4.63085L15.4842 4.14335C15.6652 4.08578 15.8606 4.09183 16.0377 4.16049C16.2149 4.22915 16.3633 4.35629 16.4583 4.52085L17.975 7.14835C18.1683 7.48752 18.1017 7.91669 17.8142 8.18085L16.6267 9.26419C16.6807 9.75493 16.6807 10.2501 16.6267 10.7409L17.8142 11.8242C18.1017 12.0892 18.1683 12.5175 17.975 12.8567L16.4583 15.4842C16.3633 15.6489 16.2147 15.7762 16.0374 15.8449C15.86 15.9135 15.6645 15.9195 15.4833 15.8617L13.9525 15.3742C13.5551 15.667 13.1263 15.9146 12.6742 16.1125L12.33 17.6784C12.2893 17.8639 12.1866 18.0299 12.0386 18.1491C11.8907 18.2682 11.7066 18.3332 11.5167 18.3334ZM9.99665 6.66669C9.1126 6.66669 8.26475 7.01788 7.63963 7.643C7.01451 8.26812 6.66332 9.11597 6.66332 10C6.66332 10.8841 7.01451 11.7319 7.63963 12.357C8.26475 12.9822 9.1126 13.3334 9.99665 13.3334C10.8807 13.3334 11.7286 12.9822 12.3537 12.357C12.9788 11.7319 13.33 10.8841 13.33 10C13.33 9.11597 12.9788 8.26812 12.3537 7.643C11.7286 7.01788 10.8807 6.66669 9.99665 6.66669Z" fill="#349A37"/>
</svg>
