<svg width="16" height="17" viewBox="0 0 16 17" fill="none" xmlns="http://www.w3.org/2000/svg">
<path d="M11.3088 12.1163C11.2225 12.0048 11.1927 11.8596 11.228 11.7231L11.6385 10.138C11.6905 9.93694 11.872 9.79651 12.0797 9.79651H14.2974V8.34171H2.14673V9.79651H4.36452C4.57221 9.79651 4.75362 9.93694 4.8057 10.138L5.21619 11.7231C5.25155 11.8596 5.22172 12.0048 5.1354 12.1163C5.04909 12.2278 4.91601 12.2931 4.77501 12.2931H2.14673V12.9883C2.14673 13.643 2.66711 14.1781 3.31589 14.2024V15.1588C3.31589 15.4079 3.51853 15.6105 3.76764 15.6105H4.81554C5.06464 15.6105 5.26729 15.4079 5.26729 15.1588V14.2036H11.1769V15.1588C11.1769 15.4079 11.3795 15.6105 11.6286 15.6105H12.6765C12.9256 15.6105 13.1283 15.4079 13.1283 15.1588V14.2024C13.777 14.178 14.2974 13.6429 14.2974 12.9883V12.2931H11.6691C11.5281 12.2931 11.3951 12.2278 11.3088 12.1163ZM10.063 11.8374C10.063 12.0891 9.85891 12.2931 9.60723 12.2931H6.83697C6.58529 12.2931 6.38124 12.0891 6.38124 11.8374V10.2522C6.38124 10.0006 6.58529 9.79651 6.83697 9.79651H9.60723C9.85891 9.79651 10.063 10.0006 10.063 10.2522V11.8374Z" fill="#349A37"/>
<path d="M12.2581 11.3816H14.2976V10.7079H12.4325L12.2581 11.3816Z" fill="#349A37"/>
<path d="M7.29272 10.7079H9.15152V11.3816H7.29272V10.7079Z" fill="#349A37"/>
<path d="M4.18624 11.3816L4.01179 10.7079H2.14673V11.3816H4.18624Z" fill="#349A37"/>
<path d="M8.67773 4.02615H14.2974V7.43024H8.67773V4.02615Z" fill="#349A37"/>
<path d="M2.14673 4.02615H7.76636V7.43024H2.14673V4.02615Z" fill="#349A37"/>
<path d="M15.5441 3.11469H14.2974V4.02614H15.0883V6.60132C15.0883 6.853 15.2924 7.05705 15.5441 7.05705C15.7957 7.05705 15.9998 6.853 15.9998 6.60132V3.57041C15.9998 3.31873 15.7957 3.11469 15.5441 3.11469Z" fill="#349A37"/>
<path d="M0.900065 3.11469C0.648381 3.11469 0.444336 3.31873 0.444336 3.57041V6.60132C0.444336 6.853 0.648381 7.05705 0.900065 7.05705C1.15175 7.05705 1.35579 6.853 1.35579 6.60132V4.02614H2.14676V3.11469H0.900065Z" fill="#349A37"/>
<path d="M14.2974 3.11468V2.71595C14.2974 2.04584 13.7523 1.50067 13.0822 1.50067H3.36201C2.6919 1.50067 2.14673 2.04584 2.14673 2.71595V3.11468H8.22209H14.2974Z" fill="#349A37"/>
</svg>
