<svg width="17" height="17" viewBox="0 0 17 17" fill="none" xmlns="http://www.w3.org/2000/svg">
<path d="M14.0781 2.125H11.1562V1.59375C11.1562 0.713535 10.4427 0 9.5625 0H7.4375C6.55729 0 5.84375 0.713535 5.84375 1.59375V2.125H2.92188C2.18838 2.125 1.59375 2.71963 1.59375 3.45312V4.51562C1.59375 4.80904 1.83158 5.04688 2.125 5.04688H14.875C15.1684 5.04688 15.4062 4.80904 15.4062 4.51562V3.45312C15.4062 2.71963 14.8116 2.125 14.0781 2.125ZM6.90625 1.59375C6.90625 1.3009 7.14465 1.0625 7.4375 1.0625H9.5625C9.85535 1.0625 10.0938 1.3009 10.0938 1.59375V2.125H6.90625V1.59375Z" fill="#E21D1D"/>
<path d="M2.60204 6.10938C2.50725 6.10938 2.43171 6.1886 2.43623 6.28329L2.87451 15.482C2.91502 16.3333 3.61427 17 4.46627 17H12.534C13.386 17 14.0852 16.3333 14.1257 15.482L14.564 6.28329C14.5685 6.1886 14.493 6.10938 14.3982 6.10938H2.60204ZM10.6251 7.4375C10.6251 7.14398 10.8629 6.90625 11.1564 6.90625C11.4499 6.90625 11.6876 7.14398 11.6876 7.4375V14.3438C11.6876 14.6373 11.4499 14.875 11.1564 14.875C10.8629 14.875 10.6251 14.6373 10.6251 14.3438V7.4375ZM7.96886 7.4375C7.96886 7.14398 8.2066 6.90625 8.50011 6.90625C8.79363 6.90625 9.03136 7.14398 9.03136 7.4375V14.3438C9.03136 14.6373 8.79363 14.875 8.50011 14.875C8.2066 14.875 7.96886 14.6373 7.96886 14.3438V7.4375ZM5.31261 7.4375C5.31261 7.14398 5.55035 6.90625 5.84386 6.90625C6.13738 6.90625 6.37511 7.14398 6.37511 7.4375V14.3438C6.37511 14.6373 6.13738 14.875 5.84386 14.875C5.55035 14.875 5.31261 14.6373 5.31261 14.3438V7.4375Z" fill="#E21D1D"/>
</svg>
