<svg width="24" height="20" viewBox="0 0 24 20" fill="none" xmlns="http://www.w3.org/2000/svg">
<path d="M23.7696 2.28634C22.8857 2.67408 21.9438 2.93109 20.9618 3.05588C21.972 2.45273 22.7431 1.50491 23.1056 0.362487C22.1637 0.924044 21.1238 1.3207 20.0155 1.54205C19.1212 0.589784 17.8465 0 16.456 0C13.7582 0 11.5862 2.18978 11.5862 4.87426C11.5862 5.26052 11.6189 5.63192 11.6991 5.98549C7.64788 5.7879 4.06312 3.84622 1.65496 0.88839C1.23453 1.61782 0.987925 2.45273 0.987925 3.35152C0.987925 5.03916 1.857 6.53516 3.15245 7.40127C2.36953 7.38641 1.60148 7.15912 0.950785 6.80108C0.950785 6.81594 0.950785 6.83525 0.950785 6.85457C0.950785 9.22262 2.63991 11.1896 4.85495 11.6427C4.45829 11.7511 4.02598 11.8031 3.57733 11.8031C3.26535 11.8031 2.9504 11.7853 2.65477 11.7199C3.28615 13.6497 5.07779 15.0685 7.20814 15.1145C5.55021 16.4114 3.44511 17.1929 1.1662 17.1929C0.76657 17.1929 0.383285 17.175 0 17.126C2.15858 18.518 4.71679 19.3128 7.47555 19.3128C16.4426 19.3128 21.3451 11.8848 21.3451 5.44622C21.3451 5.2308 21.3377 5.02282 21.3273 4.81632C22.2944 4.12997 23.107 3.27278 23.7696 2.28634Z" fill="#16C1E7"/>
</svg>
