<svg width="25" height="25" viewBox="0 0 25 25" fill="none" xmlns="http://www.w3.org/2000/svg">
<path d="M25 19.6426C25 20.4588 24.3384 21.1205 23.5222 21.1205H1.47778C0.661621 21.1205 0 20.4588 0 19.6426V5.35723C0 4.54102 0.661621 3.87939 1.47778 3.87939H23.5222C24.3384 3.87939 25 4.54106 25 5.35723V19.6426Z" fill="white"/>
<path d="M5.54873 12.5993L4.96172 9.7833C4.86137 9.39497 4.56938 9.27944 4.20454 9.26416H1.51323L1.48926 9.39282C3.5854 9.90098 4.97236 11.1269 5.54873 12.5993Z" fill="#F79F1A"/>
<path d="M11.7849 9.3208H10.046L8.95996 15.6942H10.696L11.7849 9.3208Z" fill="#059BBF"/>
<path d="M6.60884 15.6878L9.34371 9.3252H7.50332L5.802 13.6723L5.62041 13.0159C5.28692 12.2263 4.33379 11.0898 3.21484 10.3744L4.77002 15.69L6.60884 15.6878Z" fill="#059BBF"/>
<path d="M16.7449 13.6109C16.7513 12.8873 16.2867 12.3354 15.2855 11.8795C14.6771 11.5851 14.3062 11.3888 14.3107 11.09C14.3107 10.826 14.6248 10.5425 15.3052 10.5425C15.8746 10.5337 16.2846 10.6581 16.6052 10.7868L16.7623 10.8588L16.998 9.47808C16.6533 9.34932 16.1145 9.21191 15.4406 9.21191C13.724 9.21191 12.5156 10.0757 12.5047 11.3146C12.4937 12.2308 13.3686 12.7412 14.0272 13.0465C14.7033 13.3578 14.9302 13.5569 14.9258 13.8361C14.9215 14.263 14.387 14.4577 13.8875 14.4577C13.1917 14.4577 12.8231 14.3618 12.2514 14.1236L12.0292 14.0215L11.7852 15.4497C12.1906 15.6269 12.9408 15.7818 13.7196 15.7882C15.5452 15.7882 16.7318 14.9354 16.7449 13.6109Z" fill="#059BBF"/>
<path d="M18.8104 14.7392C19.0089 14.7392 20.7822 14.7414 21.0353 14.7414C21.0877 14.9633 21.2469 15.6967 21.2469 15.6967H22.8588L21.4519 9.32764H20.1105C19.6938 9.32764 19.3842 9.44106 19.2009 9.85542L16.6206 15.6967H18.4464C18.4462 15.6967 18.7428 14.9116 18.8104 14.7392ZM20.0013 11.6527C19.9927 11.6702 20.1454 11.2841 20.2326 11.0442L20.3503 11.5938C20.3503 11.5938 20.682 13.1164 20.7517 13.4348H19.3099C19.4539 13.0684 20.0013 11.6527 20.0013 11.6527Z" fill="#059BBF"/>
<path d="M23.5222 3.87939H1.47778C0.661621 3.87939 0 4.54102 0 5.35723V6.89102H25V5.35723C25 4.54102 24.3384 3.87939 23.5222 3.87939Z" fill="#059BBF"/>
<path d="M23.5222 21.1205H1.47778C0.661621 21.1205 0 20.4588 0 19.6427V18.1089H25V19.6427C25 20.4588 24.3384 21.1205 23.5222 21.1205Z" fill="#F79F1A"/>
<path opacity="0.15" d="M1.05063 19.6426V5.35723C1.05063 4.54102 1.7123 3.87939 2.52851 3.87939H1.47773C0.661621 3.87939 0 4.54102 0 5.35723V19.6426C0 20.4588 0.661621 21.1205 1.47778 21.1205H2.52856C1.71235 21.1205 1.05063 20.4588 1.05063 19.6426Z" fill="#202121"/>
</svg>
