<svg width="20" height="20" viewBox="0 0 20 20" fill="none" xmlns="http://www.w3.org/2000/svg">
<path d="M13.3663 6.25C12.7069 3.1875 11.3007 1.25 10 1.25C8.69941 1.25 7.29316 3.1875 6.63379 6.25H13.3663Z" fill="#349A37"/>
<path d="M6.25 10C6.24985 10.8361 6.3056 11.6713 6.41688 12.5H13.5831C13.6944 11.6713 13.7502 10.8361 13.75 10C13.7502 9.16388 13.6944 8.32868 13.5831 7.5H6.41688C6.3056 8.32868 6.24985 9.16388 6.25 10Z" fill="#349A37"/>
<path d="M6.63379 13.75C7.29316 16.8125 8.69941 18.75 10 18.75C11.3007 18.75 12.7069 16.8125 13.3663 13.75H6.63379Z" fill="#349A37"/>
<path d="M14.6463 6.25002H18.5838C17.9922 4.90362 17.0933 3.71461 15.9592 2.77835C14.8251 1.8421 13.4873 1.18466 12.0532 0.858765C13.2388 1.90189 14.1688 3.83064 14.6463 6.25002Z" fill="#349A37"/>
<path d="M19.0333 7.5H14.8458C14.9489 8.32934 15.0005 9.16428 15.0002 10C15.0003 10.8357 14.9485 11.6707 14.8452 12.5H19.0327C19.4885 10.8645 19.4885 9.1355 19.0327 7.5H19.0333Z" fill="#349A37"/>
<path d="M12.0532 19.1413C13.4875 18.8155 14.8255 18.1582 15.9599 17.2219C17.0942 16.2856 17.9934 15.0965 18.5851 13.75H14.6476C14.1688 16.1694 13.2388 18.0981 12.0532 19.1413Z" fill="#349A37"/>
<path d="M5.35352 13.75H1.41602C2.00776 15.0965 2.90688 16.2856 4.04123 17.2219C5.17558 18.1582 6.51358 18.8155 7.94789 19.1413C6.76102 18.0981 5.83102 16.1694 5.35352 13.75Z" fill="#349A37"/>
<path d="M7.94691 0.858765C6.5126 1.18448 5.1746 1.84184 4.04025 2.7781C2.9059 3.71437 2.00678 4.90348 1.41504 6.25002H5.35254C5.83129 3.83064 6.76129 1.90189 7.94691 0.858765Z" fill="#349A37"/>
<path d="M4.99983 10C4.99975 9.16426 5.05152 8.32933 5.15483 7.5H0.967333C0.51154 9.1355 0.51154 10.8645 0.967333 12.5H5.15483C5.05152 11.6707 4.99975 10.8357 4.99983 10Z" fill="#349A37"/>
</svg>
